<mxfile host="app.diagrams.net" modified="2023-06-21T21:41:46.287Z" agent="Mozilla/5.0 (Windows NT 10.0; Win64; x64) AppleWebKit/537.36 (KHTML, like Gecko) Chrome/114.0.0.0 Safari/537.36 Edg/114.0.1823.51" etag="NlVyJ43C5vB1M1EfMeU_" version="21.5.0" type="device">
  <diagram name="Página-1" id="km1E1QnXXUPVzGE6ZXUB">
    <mxGraphModel dx="1242" dy="573" grid="1" gridSize="10" guides="1" tooltips="1" connect="1" arrows="1" fold="1" page="1" pageScale="1" pageWidth="827" pageHeight="1169" math="0" shadow="0">
      <root>
        <mxCell id="0" />
        <mxCell id="1" parent="0" />
        <mxCell id="FfDVas_piXTqaRSEWZJX-1" value="" style="rounded=0;whiteSpace=wrap;html=1;" vertex="1" parent="1">
          <mxGeometry x="200" y="40" width="120" height="60" as="geometry" />
        </mxCell>
        <mxCell id="FfDVas_piXTqaRSEWZJX-3" style="edgeStyle=orthogonalEdgeStyle;rounded=0;orthogonalLoop=1;jettySize=auto;html=1;" edge="1" parent="1">
          <mxGeometry relative="1" as="geometry">
            <mxPoint x="260" y="160" as="targetPoint" />
            <mxPoint x="260" y="100" as="sourcePoint" />
          </mxGeometry>
        </mxCell>
        <mxCell id="FfDVas_piXTqaRSEWZJX-2" value="SISTEMA&amp;nbsp;" style="text;html=1;strokeColor=none;fillColor=none;align=center;verticalAlign=middle;whiteSpace=wrap;rounded=0;" vertex="1" parent="1">
          <mxGeometry x="230" y="55" width="60" height="30" as="geometry" />
        </mxCell>
        <mxCell id="FfDVas_piXTqaRSEWZJX-6" style="edgeStyle=orthogonalEdgeStyle;rounded=0;orthogonalLoop=1;jettySize=auto;html=1;entryX=1;entryY=0.5;entryDx=0;entryDy=0;" edge="1" parent="1" source="FfDVas_piXTqaRSEWZJX-4" target="FfDVas_piXTqaRSEWZJX-5">
          <mxGeometry relative="1" as="geometry" />
        </mxCell>
        <mxCell id="FfDVas_piXTqaRSEWZJX-10" style="edgeStyle=orthogonalEdgeStyle;rounded=0;orthogonalLoop=1;jettySize=auto;html=1;entryX=0;entryY=0.5;entryDx=0;entryDy=0;" edge="1" parent="1" source="FfDVas_piXTqaRSEWZJX-4" target="FfDVas_piXTqaRSEWZJX-9">
          <mxGeometry relative="1" as="geometry" />
        </mxCell>
        <mxCell id="FfDVas_piXTqaRSEWZJX-4" value="AVALIAÇÃO" style="rhombus;whiteSpace=wrap;html=1;" vertex="1" parent="1">
          <mxGeometry x="220" y="140" width="80" height="80" as="geometry" />
        </mxCell>
        <mxCell id="FfDVas_piXTqaRSEWZJX-12" style="edgeStyle=orthogonalEdgeStyle;rounded=0;orthogonalLoop=1;jettySize=auto;html=1;entryX=0.5;entryY=0;entryDx=0;entryDy=0;" edge="1" parent="1" source="FfDVas_piXTqaRSEWZJX-5" target="FfDVas_piXTqaRSEWZJX-11">
          <mxGeometry relative="1" as="geometry" />
        </mxCell>
        <mxCell id="FfDVas_piXTqaRSEWZJX-5" value="TECNOLOGIA&amp;nbsp;" style="rounded=1;whiteSpace=wrap;html=1;" vertex="1" parent="1">
          <mxGeometry x="60" y="215" width="120" height="50" as="geometry" />
        </mxCell>
        <mxCell id="FfDVas_piXTqaRSEWZJX-13" style="edgeStyle=orthogonalEdgeStyle;rounded=0;orthogonalLoop=1;jettySize=auto;html=1;" edge="1" parent="1" source="FfDVas_piXTqaRSEWZJX-9">
          <mxGeometry relative="1" as="geometry">
            <mxPoint x="260" y="290" as="targetPoint" />
          </mxGeometry>
        </mxCell>
        <mxCell id="FfDVas_piXTqaRSEWZJX-9" value="COLABORADORES&amp;nbsp;" style="rounded=1;whiteSpace=wrap;html=1;" vertex="1" parent="1">
          <mxGeometry x="340" y="215" width="120" height="50" as="geometry" />
        </mxCell>
        <mxCell id="FfDVas_piXTqaRSEWZJX-11" value="EMPRESAS&amp;nbsp;" style="rounded=1;whiteSpace=wrap;html=1;" vertex="1" parent="1">
          <mxGeometry x="200" y="280" width="120" height="50" as="geometry" />
        </mxCell>
      </root>
    </mxGraphModel>
  </diagram>
</mxfile>
